<svg width="24" height="24" viewBox="0 0 24 24" fill="none" xmlns="http://www.w3.org/2000/svg">
	<g filter="url(#filter0_d)">
		<path d="M10.2222 4.66667V6.44444H5.77778V16.2222H15.5556V11.7778H17.3333V17.1111C17.3333 17.3469 17.2397 17.573 17.073 17.7397C16.9063 17.9064 16.6802 18 16.4444 18H4.88889C4.65314 18 4.42705 17.9064 4.26035 17.7397C4.09365 17.573 4 17.3469 4 17.1111V5.55556C4 5.31981 4.09365 5.09372 4.26035 4.92702C4.42705 4.76032 4.65314 4.66667 4.88889 4.66667H10.2222ZM20 2V10L16.6276 6.62844L11.2951 11.9618L10.0382 10.7049L15.3707 5.37156L12 2H20Z" fill="url(#paint0_linear)" />
	</g>
	<defs>
		<filter id="filter0_d" x="0" y="0" width="24" height="24" filterUnits="userSpaceOnUse" color-interpolation-filters="sRGB">
			<feFlood flood-opacity="0" result="BackgroundImageFix" />
			<feColorMatrix in="SourceAlpha" type="matrix" values="0 0 0 0 0 0 0 0 0 0 0 0 0 0 0 0 0 0 127 0" />
			<feOffset dy="2" />
			<feGaussianBlur stdDeviation="2" />
			<feColorMatrix type="matrix" values="0 0 0 0 0.0555208 0 0 0 0 0.232608 0 0 0 0 0.286146 0 0 0 0.08 0" />
			<feBlend mode="normal" in2="BackgroundImageFix" result="effect1_dropShadow" />
			<feBlend mode="normal" in="SourceGraphic" in2="effect1_dropShadow" result="shape" />
		</filter>
		<linearGradient id="paint0_linear" x1="12" y1="2" x2="12" y2="18" gradientUnits="userSpaceOnUse">
			<stop stop-color="#3DB2D6" />
			<stop offset="1" stop-color="#23ABD5" />
		</linearGradient>
	</defs>
</svg>
