<svg width="24" height="24" viewBox="0 0 24 24" fill="none" xmlns="http://www.w3.org/2000/svg">
	<g filter="url(#filter0_d)">
		<path d="M12 2C9.5676 2 7.39125 3.09482 5.92535 4.81424L4 2.88889V8.22222H9.33333L7.19271 6.0816C8.33315 4.6816 10.0577 3.77778 12 3.77778C15.4302 3.77778 18.2222 6.56889 18.2222 10H20C20 5.58933 16.4116 2 12 2ZM4 10C4 14.4116 7.58844 18 12 18C14.4324 18 16.6087 16.9052 18.0747 15.1858L20 17.1111V11.7778H14.6667L16.8073 13.9184C15.6669 15.3184 13.9423 16.2222 12 16.2222C8.56978 16.2222 5.77778 13.4302 5.77778 10H4Z" fill="url(#paint0_linear)" />
	</g>
	<defs>
		<filter id="filter0_d" x="0" y="0" width="24" height="24" filterUnits="userSpaceOnUse" color-interpolation-filters="sRGB">
			<feFlood flood-opacity="0" result="BackgroundImageFix" />
			<feColorMatrix in="SourceAlpha" type="matrix" values="0 0 0 0 0 0 0 0 0 0 0 0 0 0 0 0 0 0 127 0" />
			<feOffset dy="2" />
			<feGaussianBlur stdDeviation="2" />
			<feColorMatrix type="matrix" values="0 0 0 0 0.0555208 0 0 0 0 0.232608 0 0 0 0 0.286146 0 0 0 0.08 0" />
			<feBlend mode="normal" in2="BackgroundImageFix" result="effect1_dropShadow" />
			<feBlend mode="normal" in="SourceGraphic" in2="effect1_dropShadow" result="shape" />
		</filter>
		<linearGradient id="paint0_linear" x1="12" y1="2" x2="12" y2="18" gradientUnits="userSpaceOnUse">
			<stop stop-color="#3DB2D6" />
			<stop offset="1" stop-color="#23ABD5" />
		</linearGradient>
	</defs>
</svg>
