<svg width="26" height="26" viewBox="0 0 26 26" fill="none" xmlns="http://www.w3.org/2000/svg">
	<g filter="url(#filter0_d)">
		<path fill-rule="evenodd" clip-rule="evenodd" d="M12.1818 3.6843V2H13.8182V3.6843C17.2499 4.05762 19.9424 6.75013 20.3157 10.1818H22V11.8182H20.3157C19.9424 15.2499 17.2499 17.9424 13.8182 18.3157V20H12.1818V18.3157C8.75013 17.9424 6.05762 15.2499 5.6843 11.8182H4V10.1818H5.6843C6.05762 6.75013 8.75013 4.05762 12.1818 3.6843ZM18.7273 11C18.7273 7.80909 16.1909 5.27273 13 5.27273C9.80909 5.27273 7.27273 7.80909 7.27273 11C7.27273 14.1909 9.80909 16.7273 13 16.7273C16.1909 16.7273 18.7273 14.1909 18.7273 11ZM13 13.4545C14.3556 13.4545 15.4546 12.3555 15.4546 10.9999C15.4546 9.64432 14.3556 8.54538 13 8.54538C11.6444 8.54538 10.5455 9.64432 10.5455 10.9999C10.5455 12.3555 11.6444 13.4545 13 13.4545Z" fill="url(#paint0_linear)" />
	</g>
	<defs>
		<filter id="filter0_d" x="0" y="0" width="26" height="26" filterUnits="userSpaceOnUse" color-interpolation-filters="sRGB">
			<feFlood flood-opacity="0" result="BackgroundImageFix" />
			<feColorMatrix in="SourceAlpha" type="matrix" values="0 0 0 0 0 0 0 0 0 0 0 0 0 0 0 0 0 0 127 0" />
			<feOffset dy="2" />
			<feGaussianBlur stdDeviation="2" />
			<feColorMatrix type="matrix" values="0 0 0 0 0.0555208 0 0 0 0 0.232608 0 0 0 0 0.286146 0 0 0 0.08 0" />
			<feBlend mode="normal" in2="BackgroundImageFix" result="effect1_dropShadow" />
			<feBlend mode="normal" in="SourceGraphic" in2="effect1_dropShadow" result="shape" />
		</filter>
		<linearGradient id="paint0_linear" x1="13" y1="2" x2="13" y2="20" gradientUnits="userSpaceOnUse">
			<stop stop-color="#3DB2D6" />
			<stop offset="1" stop-color="#23ABD5" />
		</linearGradient>
	</defs>
</svg>
