<svg width="24" height="24" viewBox="0 0 24 24" fill="none" xmlns="http://www.w3.org/2000/svg">
	<g filter="url(#filter0_d)">
		<path d="M16.6266 13.5128L20 16.8855L18.8855 18L15.5128 14.6266C14.2579 15.6325 12.6971 16.1797 11.0887 16.1774C7.17574 16.1774 4 13.0017 4 9.08871C4 5.17574 7.17574 2 11.0887 2C15.0017 2 18.1774 5.17574 18.1774 9.08871C18.1797 10.6971 17.6325 12.2579 16.6266 13.5128ZM15.0466 12.9284C16.0462 11.9005 16.6044 10.5225 16.6021 9.08871C16.6021 6.04214 14.1345 3.57527 11.0887 3.57527C8.04214 3.57527 5.57527 6.04214 5.57527 9.08871C5.57527 12.1345 8.04214 14.6021 11.0887 14.6021C12.5225 14.6044 13.9005 14.0462 14.9284 13.0466L15.0466 12.9284ZM10.3011 8.30107V5.93817H11.8763V8.30107H14.2392V9.87634H11.8763V12.2392H10.3011V9.87634H7.93817V8.30107H10.3011Z" fill="url(#paint0_linear)" />
	</g>
	<defs>
		<filter id="filter0_d" x="0" y="0" width="24" height="24" filterUnits="userSpaceOnUse" color-interpolation-filters="sRGB">
			<feFlood flood-opacity="0" result="BackgroundImageFix" />
			<feColorMatrix in="SourceAlpha" type="matrix" values="0 0 0 0 0 0 0 0 0 0 0 0 0 0 0 0 0 0 127 0" />
			<feOffset dy="2" />
			<feGaussianBlur stdDeviation="2" />
			<feColorMatrix type="matrix" values="0 0 0 0 0.0555208 0 0 0 0 0.232608 0 0 0 0 0.286146 0 0 0 0.08 0" />
			<feBlend mode="normal" in2="BackgroundImageFix" result="effect1_dropShadow" />
			<feBlend mode="normal" in="SourceGraphic" in2="effect1_dropShadow" result="shape" />
		</filter>
		<linearGradient id="paint0_linear" x1="12" y1="2" x2="12" y2="18" gradientUnits="userSpaceOnUse">
			<stop stop-color="#3DB2D6" />
			<stop offset="1" stop-color="#23ABD5" />
		</linearGradient>
	</defs>
</svg>
